<svg width="64" height="65" viewBox="0 0 64 65" fill="none" xmlns="http://www.w3.org/2000/svg">
<rect y="0.420898" width="64" height="64" rx="8" fill="#707070"/>
<g clip-path="url(#clip0_2214_745)">
<path d="M31.9458 10.4209C19.8258 10.4209 10 20.2467 10 32.3667C10 44.4867 19.8258 54.3125 31.9458 54.3125C44.0658 54.3125 53.8916 44.4867 53.8916 32.3667C53.8916 20.2467 44.0658 10.4209 31.9458 10.4209ZM52.4645 32.3667C52.4645 43.6983 43.2787 52.8854 31.9458 52.8854C20.6129 52.8854 11.4271 43.6983 11.4271 32.3667C11.4271 21.0351 20.6142 11.848 31.9458 11.848C43.2774 11.848 52.4645 21.0351 52.4645 32.3667Z" fill="white"/>
<path d="M42.5819 23.0556C42.88 23.3756 43.3097 23.8918 43.551 24.2053L47.9948 21.3847C47.7729 21.0943 47.4194 20.653 47.1548 20.3421L44.3406 22.2027L44.1484 22.3679L44.2916 22.1588L45.5342 19.6788L44.6555 18.8001L42.1742 20.0427L41.9652 20.1859L42.1316 19.9937L43.9935 17.1808C43.6658 16.9021 43.351 16.6466 42.9497 16.3369L40.129 20.7769C40.4864 21.0518 40.9574 21.4556 41.2581 21.7305L43.9135 20.3524L44.0839 20.2272L43.9587 20.3976L42.5819 23.0556Z" fill="white"/>
<path d="M32.4981 17.4286L33.7123 14.7086L33.7897 14.4673L33.7678 14.7189L33.8955 18.3537C34.3213 18.3937 34.7613 18.4531 35.1948 18.5253L34.9974 13.1421C34.391 13.075 33.7871 13.0273 33.1832 13.0015L31.9871 15.9705L31.9445 16.1911L31.9019 15.9705L30.7071 13.0015C30.1032 13.0273 29.4994 13.075 28.8929 13.1421L28.6955 18.5253C29.129 18.4531 29.569 18.395 29.9949 18.3537L30.1226 14.7189L30.1007 14.4673L30.1781 14.7086L31.3923 17.4286H32.4981Z" fill="white"/>
<path d="M22.6774 21.7189C23.3794 20.9796 23.7768 20.1254 23.0749 19.3099C22.6929 18.8673 22.0516 18.7706 21.52 18.9886L21.4671 19.0093L21.4839 18.9628C21.5626 18.7525 21.6129 18.0815 21.0413 17.6183C20.7626 17.3925 20.4129 17.3086 20.0594 17.3448C19.4 17.4119 18.8929 17.8622 17.5123 19.4015C17.0955 19.866 16.4891 20.5989 16.1252 21.0738L19.9174 24.6712C21.1742 23.2802 21.6865 22.7628 22.6774 21.7189ZM17.7291 20.8389C18.4929 19.9048 19.3045 19.057 19.6723 18.7215C19.7884 18.6157 19.9149 18.5099 20.0684 18.4686C20.3174 18.4002 20.5742 18.577 20.6323 18.8325C20.6903 19.0893 20.5291 19.3331 20.3497 19.5344C19.9458 19.9899 18.4645 21.5396 18.4645 21.5396L17.7291 20.8389ZM19.2142 22.248C19.2142 22.248 20.6568 20.7228 21.1278 20.2351C21.3149 20.0415 21.4349 19.9241 21.5639 19.8609C21.7303 19.7796 21.9123 19.7628 22.0749 19.8712C22.2349 19.9783 22.3084 20.1628 22.2684 20.346C22.2207 20.5641 22.0426 20.7719 21.8955 20.9306C21.6968 21.1435 19.9858 22.9744 19.9832 22.977L19.2142 22.248Z" fill="white"/>
<path d="M44.96 32.3667H31.9458V19.3525C39.1381 19.3525 44.96 25.1745 44.96 32.3667Z" fill="white"/>
<path d="M31.9458 32.3667V45.3809C24.7536 45.3809 18.9316 39.559 18.9316 32.3667H31.9458Z" fill="white"/>
<path d="M31.9458 19.3525V32.3667H18.9316C18.9316 25.1745 24.7536 19.3525 31.9458 19.3525Z" fill="#0066B1"/>
<path d="M44.96 32.3667C44.96 39.559 39.1381 45.3809 31.9458 45.3809V32.3667H44.96Z" fill="#0066B1"/>
</g>
<defs>
<clipPath id="clip0_2214_745">
<rect width="44" height="44" fill="white" transform="translate(10 10.4209)"/>
</clipPath>
</defs>
</svg>
