<svg width="64" height="65" viewBox="0 0 64 65" fill="none" xmlns="http://www.w3.org/2000/svg">
<g clip-path="url(#clip0_2214_853)">
<path d="M64 0.420898H0V64.4209H64V0.420898Z" fill="white"/>
<g opacity="0.5">
<path d="M64 0.420898H0V64.4209H64V0.420898Z" fill="#F5F5F5"/>
</g>
<path d="M44.1629 46.8122L44.9078 44.8586L45.6514 46.8122H44.1629ZM45.681 43.7494H44.134L41.9722 49.0464H43.3123L43.8046 47.7538H46.01L46.5026 49.0464H47.8421L45.681 43.7494ZM34.7698 48.1255C33.8969 48.1255 33.1903 47.3378 33.1903 46.3658C33.1903 45.3937 33.8967 44.6055 34.7698 44.6055C35.643 44.6055 36.3488 45.3937 36.3488 46.3658C36.3488 47.3378 35.6412 48.1255 34.7698 48.1255ZM34.7698 43.5679C33.2244 43.5679 31.9717 44.8206 31.9717 46.3658C31.9717 47.911 33.2247 49.1631 34.7698 49.1631C36.315 49.1631 37.5677 47.911 37.5677 46.3658C37.5677 44.8206 36.3145 43.5679 34.7698 43.5679ZM23.7301 48.1255C22.8585 48.1255 22.1516 47.3378 22.1516 46.3658C22.1516 45.3937 22.8585 44.6055 23.7301 44.6055C24.6017 44.6055 25.3096 45.3937 25.3096 46.3658C25.3096 47.3378 24.6025 48.1255 23.7301 48.1255ZM23.7301 43.5679C22.1852 43.5679 20.9335 44.8206 20.9335 46.3658C20.9335 47.911 22.1852 49.1631 23.7301 49.1631C25.275 49.1631 26.5277 47.911 26.5277 46.3658C26.5277 44.8206 25.275 43.5679 23.7301 43.5679ZM30.6452 43.7494L29.2745 45.8926L27.9027 43.7494H26.5621L28.6841 47.0711V49.0462H29.8641V47.0713L31.9861 43.7491H30.6455L30.6452 43.7494ZM42.2544 43.7494H37.7262V44.765H39.4033V49.0462H40.5847V44.765H42.2544V43.7494ZM16.1579 44.765H17.8355V49.0462H19.0164V44.765H20.6867V43.7494H16.1579V44.765Z" fill="#282828"/>
<path d="M42.5637 17.2881H21.3797V38.4721H42.5637V17.2881Z" fill="#E90A1E"/>
<path d="M35.5046 23.2599C34.5215 22.9438 33.2979 22.7571 31.9722 22.7571C30.6466 22.7571 29.4227 22.9438 28.4394 23.2599C25.8246 24.1006 24.0278 25.8464 24.0278 27.8637C24.0278 30.702 27.5846 33.0031 31.9722 33.0031C36.3599 33.0031 39.9158 30.7017 39.9158 27.8637C39.9158 25.8464 38.1191 24.1011 35.5046 23.2599ZM31.9722 30.7935C31.3175 30.7935 30.7827 29.5062 30.7512 27.8886C31.1449 27.924 31.5533 27.9429 31.9722 27.9429C32.3911 27.9429 32.7987 27.924 33.1929 27.8886C33.1612 29.5062 32.6269 30.7935 31.9722 30.7935ZM30.8339 26.622C31.0125 25.4865 31.4545 24.6823 31.9722 24.6823C32.49 24.6823 32.9314 25.4865 33.1098 26.622C32.746 26.6548 32.3651 26.6731 31.9722 26.6731C31.5793 26.6731 31.1982 26.655 30.8339 26.622ZM33.8057 26.5362C33.54 24.7539 32.8194 23.4766 31.9722 23.4766C31.125 23.4766 30.404 24.7542 30.1383 26.5362C28.5246 26.2844 27.3965 25.711 27.3965 25.043C27.3965 24.143 29.445 23.4133 31.972 23.4133C34.4989 23.4133 36.5472 24.143 36.5472 25.043C36.5472 25.7108 35.4193 26.2842 33.8054 26.5362M25.1869 27.6754C25.1869 26.8053 25.5219 25.9899 26.106 25.2885C26.0994 25.3373 26.0958 25.3863 26.0958 25.4356C26.0958 26.5302 27.7398 27.4606 30.0318 27.8026C30.0299 27.8852 30.0286 27.9681 30.0286 28.0518C30.0286 30.0869 30.5931 31.8105 31.3734 32.4048C27.9061 32.1929 25.1867 30.1569 25.1867 27.6756M32.5697 32.4048C33.3498 31.8105 33.914 30.0869 33.914 28.0518C33.914 27.9681 33.9132 27.8852 33.9114 27.8026C36.203 27.4606 37.8471 26.5302 37.8471 25.4356C37.8471 25.3863 37.8432 25.3373 37.8366 25.2885C38.4207 25.9899 38.7557 26.8053 38.7557 27.6754C38.7557 30.1567 36.0362 32.1929 32.5697 32.4048Z" fill="white"/>
</g>
<defs>
<clipPath id="clip0_2214_853">
<rect width="64" height="64" fill="white" transform="translate(0 0.420898)"/>
</clipPath>
</defs>
</svg>
