<svg width="189" height="42" viewBox="0 0 189 42" fill="none" xmlns="http://www.w3.org/2000/svg">
<g clip-path="url(#clip0_2214_576)">
<path fill-rule="evenodd" clip-rule="evenodd" d="M94.5702 17.5395L88.1882 35.7H84.0978L75.6 10.6053H80.749L86.4963 28.5204L92.6308 10.5H96.8266L102.997 28.5549L108.745 10.6053H113.4L105.148 35.7H100.917L94.5702 17.5395Z" fill="#424242"/>
<path fill-rule="evenodd" clip-rule="evenodd" d="M146.666 16.7999L141.469 28.8562L136.273 16.7999H131.25L139.203 34.2195L135.855 41.9999H140.319L151.2 16.7999H146.666Z" fill="#424242"/>
<path fill-rule="evenodd" clip-rule="evenodd" d="M156.668 27.4362V35.6999H152.25V9.44995H156.668V24.9217L164.803 17.5199H170.659L161.227 25.9989L171.15 35.6999H165.153L156.668 27.4362Z" fill="#424242"/>
<path fill-rule="evenodd" clip-rule="evenodd" d="M174.83 23.6926H184.218C183.542 21.4209 181.87 20.1436 179.559 20.1436C177.106 20.1436 175.399 21.4559 174.83 23.6926ZM188.982 26.3187V26.816H174.688C174.866 29.6197 176.928 31.7499 179.915 31.7499C182.795 31.7499 183.969 30.2946 184.289 29.7977H188.769C188.484 31.6434 186.031 35.5117 179.915 35.5117C174.083 35.5117 170.136 31.4654 170.136 26.0706C170.136 20.4982 174.048 16.6299 179.559 16.6299C185.107 16.6299 188.982 20.4631 188.982 26.3187Z" fill="#424242"/>
<path fill-rule="evenodd" clip-rule="evenodd" d="M120.637 20.9842C118.101 20.9842 115.478 22.8666 115.478 26.0171C115.478 28.4909 117.408 31.0496 120.637 31.0496C123.181 31.0496 125.757 29.3211 125.757 26.0171C125.757 22.7481 123.119 20.9842 120.637 20.9842ZM119.977 35.287C115.569 35.287 110.885 32.0383 110.885 26.0171C110.885 19.9955 115.569 16.7465 119.977 16.7465C121.741 16.7465 124.242 17.4196 125.485 19.3162L125.747 19.7158V17.0853H130.195V35.0547H125.747V32.2606L125.483 32.6812C124.286 34.5932 121.534 35.287 119.977 35.287Z" fill="#424242"/>
<path fill-rule="evenodd" clip-rule="evenodd" d="M44.6198 28.9774C47.0451 28.9774 49.0112 30.9396 49.0112 33.3605C49.0112 35.7814 47.0451 37.7439 44.6198 37.7439C42.1948 37.7439 40.2287 35.7814 40.2287 33.3605C40.2287 30.9396 42.1948 28.9774 44.6198 28.9774ZM15.8492 31.1688C17.062 31.1688 18.0449 32.1502 18.0449 33.3605C18.0449 34.5708 17.062 35.5522 15.8492 35.5522C14.6367 35.5522 13.6535 34.5708 13.6535 33.3605C13.6535 32.1502 14.6367 31.1688 15.8492 31.1688ZM51.8126 18.9925C54.3726 18.9925 56.4481 21.0643 56.4481 23.6199C56.4481 26.1755 54.3726 28.2469 51.8126 28.2469C49.2523 28.2469 47.1768 26.1755 47.1768 23.6199C47.1768 21.0643 49.2523 18.9925 51.8126 18.9925ZM37.4271 19.967C39.4483 19.967 41.0866 21.6024 41.0866 23.6199C41.0866 25.637 39.4483 27.2727 37.4271 27.2727C35.4063 27.2727 33.7676 25.637 33.7676 23.6199C33.7676 21.6024 35.4063 19.967 37.4271 19.967ZM23.0421 21.1849C24.3892 21.1849 25.4815 22.2752 25.4815 23.6199C25.4815 24.9649 24.3892 26.0552 23.0421 26.0552C21.6943 26.0552 20.6023 24.9649 20.6023 23.6199C20.6023 22.2752 21.6943 21.1849 23.0421 21.1849ZM8.65648 21.9154C9.59976 21.9154 10.3644 22.6787 10.3644 23.6199C10.3644 24.5614 9.59976 25.3247 8.65648 25.3247C7.7132 25.3247 6.94859 24.5614 6.94859 23.6199C6.94859 22.6787 7.7132 21.9154 8.65648 21.9154ZM59.0051 9.0086C61.7 9.0086 63.8844 11.189 63.8844 13.879C63.8844 16.5686 61.7 18.7493 59.0051 18.7493C56.3106 18.7493 54.1259 16.5686 54.1259 13.879C54.1259 11.189 56.3106 9.0086 59.0051 9.0086ZM44.6199 9.73917C46.9103 9.73917 48.7673 11.5927 48.7673 13.879C48.7673 16.1655 46.9103 18.0187 44.6199 18.0187C42.3292 18.0187 40.4723 16.1655 40.4723 13.879C40.4723 11.5927 42.3292 9.73917 44.6199 9.73917ZM30.2346 10.9567C31.8512 10.9567 33.1622 12.2649 33.1622 13.879C33.1622 15.4927 31.8512 16.8012 30.2346 16.8012C28.6176 16.8012 27.307 15.4927 27.307 13.879C27.307 12.2649 28.6176 10.9567 30.2346 10.9567ZM15.8492 11.6872C17.062 11.6872 18.0449 12.6687 18.0449 13.879C18.0449 15.0896 17.062 16.0707 15.8492 16.0707C14.6367 16.0707 13.6535 15.0896 13.6535 13.879C13.6535 12.6687 14.6367 11.6872 15.8492 11.6872ZM1.4638 12.4178C2.27248 12.4178 2.92761 13.0718 2.92761 13.879C2.92761 14.6858 2.27248 15.3401 1.4638 15.3401C0.655475 15.3401 0 14.6858 0 13.879C0 13.0718 0.655475 12.4178 1.4638 12.4178ZM51.8126 0.241821C53.9684 0.241821 55.7162 1.98646 55.7162 4.13831C55.7162 6.29016 53.9684 8.03446 51.8126 8.03446C49.6568 8.03446 47.9094 6.29016 47.9094 4.13831C47.9094 1.98646 49.6568 0.241821 51.8126 0.241821ZM37.4276 0.485459C39.4487 0.485459 41.0871 2.12082 41.0871 4.13831C41.0871 6.1558 39.4487 7.79117 37.4276 7.79117C35.4064 7.79117 33.7681 6.1558 33.7681 4.13831C33.7681 2.12082 35.4064 0.485459 37.4276 0.485459ZM23.0421 1.703C24.3892 1.703 25.4815 2.79301 25.4815 4.138C25.4815 5.483 24.3892 6.57336 23.0421 6.57336C21.6943 6.57336 20.6023 5.483 20.6023 4.138C20.6023 2.79301 21.6943 1.703 23.0421 1.703ZM8.65648 2.43357C9.59976 2.43357 10.3644 3.19644 10.3644 4.138C10.3644 5.07957 9.59976 5.84278 8.65648 5.84278C7.7132 5.84278 6.94859 5.07957 6.94859 4.138C6.94859 3.19644 7.7132 2.43357 8.65648 2.43357Z" fill="#424242"/>
</g>
<defs>
<clipPath id="clip0_2214_576">
<rect width="189" height="42" fill="white"/>
</clipPath>
</defs>
</svg>
